<svg width="45" height="38" viewBox="0 0 45 38" fill="none" xmlns="http://www.w3.org/2000/svg">
<g clip-path="url(#clip0)">
<path fill-rule="evenodd" clip-rule="evenodd" d="M8.94297 3.87545C8.94297 1.73525 10.6856 0 12.835 0H32.1887C34.3381 0 36.0792 1.73525 36.0792 3.87545V23.1467C36.0792 25.2869 34.3381 27.0222 32.1887 27.0222H12.835C10.6856 27.0222 8.94297 25.2869 8.94297 23.1467V3.87545ZM13.6769 24.3742C12.5316 24.3742 11.6023 23.4489 11.6023 22.3068V4.72014C11.6023 3.57965 12.5316 2.65429 13.6769 2.65429H16.0439C19.1639 2.65429 21.4737 5.80052 19.4785 7.79045L13.6912 13.5609L18.6587 18.743C21.067 21.2549 18.2457 24.3742 15.5737 24.3742H13.6769ZM21.1894 2.65429H23.1894C26.3078 2.65429 28.6176 5.80052 26.6239 7.79045L20.8351 13.5609L31.4754 24.3695L20.2473 24.3679C22.6588 24.3679 24.1822 20.3264 21.6008 17.6499L17.6579 13.5609L22.2474 8.85027C24.7192 6.31303 22.9257 3.04816 21.1894 2.65429ZM33.4183 22.3068L24.8018 13.5609L29.3928 8.85027C31.8646 6.31303 30.0695 3.04816 28.3332 2.65429H31.3388C32.4858 2.65429 33.4151 3.57965 33.4151 4.72014L33.4183 22.3068ZM1.77846 35.1891V36.7646H2.48379C2.85075 36.7646 3.12875 36.695 3.3178 36.559C3.50684 36.4229 3.60215 36.2236 3.60215 35.9626C3.60215 35.7048 3.51478 35.5118 3.34162 35.3821C3.16847 35.254 2.90953 35.1891 2.56481 35.1891H1.77846ZM1.77846 32.5032V34.0012H2.32334C2.70301 34.0012 2.98578 33.9363 3.17482 33.8098C3.36228 33.6816 3.456 33.4871 3.456 33.2261C3.456 32.9888 3.36863 32.8101 3.19071 32.6867C3.01438 32.5649 2.75226 32.5032 2.40913 32.5032H1.77846ZM0.0214844 31.2947H2.77768C3.59262 31.2947 4.20581 31.4402 4.61567 31.7313C5.02711 32.0239 5.23204 32.4573 5.23204 33.0331C5.23204 33.4191 5.12401 33.7417 4.90956 33.998C4.6951 34.2543 4.38215 34.4393 3.9707 34.5516C4.43298 34.6371 4.78723 34.8174 5.03505 35.0926C5.28287 35.3679 5.40678 35.719 5.40678 36.1461C5.40678 36.7757 5.1812 37.2423 4.72846 37.546C4.2773 37.8481 3.5815 38 2.64106 38H0.0214844V31.2947H0.0214844ZM9.25115 32.7911L8.37902 35.3046H10.0947L9.25115 32.7911ZM8.20428 31.2947H10.3695L12.9192 38H11.0002L10.522 36.5795H7.92945L7.42746 38H5.65142L8.20428 31.2947ZM13.3068 31.2947H15.5483L17.4975 35.3157C17.5642 35.4501 17.6421 35.6383 17.731 35.8788C17.8184 36.1192 17.9169 36.415 18.0233 36.7646C17.9677 36.434 17.9248 36.1303 17.8978 35.8535C17.8708 35.5767 17.8581 35.3236 17.8581 35.0942V31.2947H19.4785V38H17.2465L15.2211 33.8335C15.1273 33.6421 15.04 33.4333 14.9605 33.2087C14.8827 32.9841 14.8096 32.7389 14.7429 32.4747C14.8064 32.8749 14.8525 33.2419 14.8827 33.5772C14.9129 33.911 14.9288 34.2068 14.9288 34.4615V38H13.3068V31.2947ZM20.7525 31.2947H22.5476V34.1926L24.6334 31.2947H26.643L24.1695 34.3761L26.8955 38H24.6652L22.5476 34.8901V38H20.7525V31.2947ZM32.1188 35.1891V36.7646H32.8257C33.1911 36.7646 33.4691 36.695 33.6581 36.559C33.8488 36.4229 33.9425 36.2236 33.9425 35.9626C33.9425 35.7048 33.8567 35.5118 33.682 35.3821C33.5088 35.254 33.2499 35.1891 32.9052 35.1891H32.1188ZM32.1188 32.5032V34.0012H32.6637C33.0434 34.0012 33.3277 33.9363 33.5152 33.8098C33.7026 33.6816 33.7979 33.4871 33.7979 33.2261C33.7979 32.9888 33.709 32.8101 33.5311 32.6867C33.3547 32.5649 33.0942 32.5032 32.7495 32.5032H32.1188ZM30.3618 31.2947H33.1196C33.9346 31.2947 34.5462 31.4402 34.9576 31.7313C35.3675 32.0239 35.5724 32.4573 35.5724 33.0331C35.5724 33.4191 35.466 33.7417 35.2515 33.998C35.0355 34.2543 34.7225 34.4393 34.3126 34.5516C34.7733 34.6371 35.1276 34.8174 35.3754 35.0926C35.6232 35.3679 35.7471 35.719 35.7471 36.1461C35.7471 36.7757 35.5216 37.2423 35.0704 37.546C34.6192 37.8481 33.9219 38 32.9814 38H30.3618V31.2947ZM38.5637 32.4747V34.1941H39.1944C39.582 34.1941 39.8743 34.123 40.0681 33.9838C40.2619 33.843 40.3588 33.6326 40.3588 33.3526C40.3588 33.0505 40.2508 32.829 40.0347 32.6867C39.8187 32.5443 39.4771 32.4747 39.0085 32.4747H38.5637ZM36.8083 31.2947H39.4835C40.3747 31.2947 41.0355 31.4386 41.4676 31.7265C41.8997 32.0144 42.1158 32.4526 42.1158 33.041C42.1158 33.476 42.0014 33.8335 41.7742 34.1135C41.5455 34.3935 41.2166 34.5801 40.7861 34.675C41.1404 34.8031 41.4247 35.1701 41.6408 35.7744L42.4446 38H40.5733L39.9807 36.1651C39.8854 35.8693 39.7567 35.6652 39.5915 35.5513C39.4279 35.439 39.1721 35.3821 38.8242 35.3821H38.5637V38H36.8083V31.2947ZM43.1833 31.2947H44.9784V38H43.1833V31.2947Z" fill="#1F4396"/>
</g>
<defs>
<clipPath id="clip0">
<rect width="45" height="38" fill="white"/>
</clipPath>
</defs>
</svg>
