<svg width="174" height="28" viewBox="0 0 174 28" fill="none" xmlns="http://www.w3.org/2000/svg">
<path d="M11.6532 1.01951C12.4736 1.01951 13.2118 1.16014 13.8681 1.44139C14.5478 1.6992 15.1689 1.99217 15.7314 2.32029C16.3173 2.64842 16.8681 2.9531 17.3837 3.23436C17.8993 3.49217 18.4267 3.62107 18.9657 3.62107C19.3876 3.59764 19.8681 3.53904 20.4071 3.44529C20.8759 3.35154 21.415 3.21092 22.0243 3.02342C22.6571 2.81248 23.3603 2.50779 24.1337 2.10936C23.3603 2.85936 22.7275 3.49217 22.2353 4.00779C21.7665 4.49998 21.4032 4.91014 21.1454 5.23826C20.8407 5.61326 20.6181 5.90623 20.4775 6.11717C20.3368 6.37498 20.1259 6.7617 19.8447 7.27732C19.5868 7.74607 19.2353 8.37889 18.79 9.17576C18.3447 9.9492 17.7821 10.9688 17.1025 12.2344C17.1025 10.6172 16.9384 9.36326 16.6103 8.47264C16.3056 7.58201 15.9657 6.90232 15.5907 6.43357C15.1454 5.89451 14.6415 5.55467 14.079 5.41404C13.5634 5.34373 13.0478 5.43748 12.5321 5.69529C12.0165 5.92967 11.5009 6.28123 10.9853 6.74998C10.4931 7.21873 10.0126 7.78123 9.54391 8.43748C9.0986 9.07029 8.68844 9.73826 8.31344 10.4414C7.96188 11.1445 7.66891 11.8594 7.43453 12.5859C7.20016 13.2891 7.04782 13.9453 6.9775 14.5547C6.90719 15.0938 6.89547 15.7266 6.94235 16.4531C6.98922 17.1562 7.09469 17.8828 7.25875 18.6328C7.42282 19.3594 7.63375 20.0742 7.89156 20.7773C8.14938 21.4805 8.46578 22.1133 8.84078 22.6758C9.23922 23.2148 9.68453 23.6602 10.1767 24.0117C10.6689 24.3398 11.2314 24.4922 11.8642 24.4688C12.5673 24.4219 13.2587 24.2109 13.9384 23.8359C14.5243 23.5312 15.122 23.0625 15.7314 22.4297C16.3407 21.7734 16.8681 20.8477 17.3134 19.6523L22.5165 20.6016C21.0165 22.4297 19.5517 23.8008 18.122 24.7148C16.7157 25.6289 15.4501 26.2734 14.3251 26.6484C13.0126 27.0703 11.7704 27.2695 10.5986 27.2461C9.12203 27.082 7.73922 26.6367 6.45016 25.9102C5.1611 25.1836 4.04782 24.3047 3.11032 23.2734C2.19625 22.2188 1.48141 21.0703 0.965782 19.8281C0.450157 18.5859 0.2275 17.3672 0.297813 16.1719C0.344688 15.375 0.50875 14.4492 0.79 13.3945C1.07125 12.3164 1.44625 11.2148 1.915 10.0898C2.40719 8.96482 2.99313 7.86326 3.67282 6.78514C4.3525 5.70701 5.1025 4.74607 5.92282 3.90232C6.74313 3.03514 7.63375 2.34373 8.59469 1.8281C9.57906 1.28904 10.5986 1.01951 11.6532 1.01951ZM23.3681 11.2852L29.8368 11.3555C29.4618 12.7852 29.1806 14.0039 28.9931 15.0117C28.829 16.0195 28.7236 16.8633 28.6767 17.543C28.5829 18.3164 28.5595 18.9727 28.6064 19.5117C28.6767 20.0039 28.7939 20.5312 28.9579 21.0938C29.0986 21.5625 29.3095 22.1016 29.5907 22.7109C29.872 23.3203 30.247 23.9297 30.7157 24.5391C30.4345 24.4453 30.1298 24.375 29.8017 24.3281C29.4736 24.2812 29.1689 24.2461 28.8876 24.2227C28.5595 24.1992 28.2314 24.1992 27.9032 24.2227C27.5751 24.2461 27.2118 24.2812 26.8134 24.3281C26.4853 24.375 26.0868 24.4336 25.6181 24.5039C25.1493 24.5742 24.6571 24.668 24.1415 24.7852C24.4931 23.7305 24.7626 22.8164 24.9501 22.043C25.1611 21.2695 25.3134 20.625 25.4071 20.1094C25.5009 19.5 25.5595 19.0078 25.5829 18.6328C25.5829 18.1641 25.5829 17.6367 25.5829 17.0508C25.5829 16.4414 25.5829 15.8555 25.5829 15.293C25.5829 14.7305 25.5712 14.2383 25.5478 13.8164C25.5243 13.3711 25.4775 13.0898 25.4071 12.9727L25.0556 12.6211C24.915 12.5039 24.704 12.3398 24.4228 12.1289C24.165 11.8945 23.8134 11.6133 23.3681 11.2852ZM25.8642 5.87107C26.3564 5.61326 26.8486 5.54295 27.3407 5.66014C27.8564 5.77732 28.2548 5.99998 28.5361 6.3281C28.8173 6.65623 28.9111 7.04295 28.8173 7.48826C28.747 7.93357 28.372 8.36717 27.6923 8.78904C27.0126 9.18748 26.415 9.3281 25.8993 9.21092C25.3837 9.09373 25.0204 8.84764 24.8095 8.47264C24.5986 8.09764 24.5634 7.66404 24.704 7.17186C24.8447 6.65623 25.2314 6.22264 25.8642 5.87107ZM33.5712 23.1328C33.7353 22.3594 33.8525 21.6797 33.9228 21.0938C34.0165 20.4844 34.0868 19.9805 34.1337 19.582C34.1806 19.1133 34.204 18.7148 34.204 18.3867C34.1806 17.9883 34.1571 17.5195 34.1337 16.9805C34.1337 16.418 34.1103 15.8672 34.0634 15.3281C34.04 14.7656 34.0048 14.2734 33.9579 13.8516C33.9111 13.4062 33.8525 13.0898 33.7821 12.9023C33.6884 12.7148 33.5595 12.5156 33.3954 12.3047C33.0673 11.9062 32.5868 11.5195 31.954 11.1445C32.4931 11.0273 32.9501 10.9336 33.3251 10.8633C33.7236 10.7695 34.0517 10.6875 34.3095 10.6172C34.5907 10.5234 34.8368 10.4414 35.0478 10.3711C35.2353 10.3008 35.4579 10.2305 35.7157 10.1602C35.9267 10.1133 36.1845 10.0547 36.4892 9.98436C36.7939 9.91404 37.1454 9.83201 37.5439 9.73826L37.4384 12.9375C38.1884 12.0469 38.9501 11.3789 39.7236 10.9336C40.497 10.4883 41.2236 10.1719 41.9032 9.98436C42.6767 9.74998 43.4384 9.63279 44.1884 9.63279C45.1259 9.67967 45.9931 9.83201 46.79 10.0898C47.6103 10.3477 48.3134 10.6523 48.8993 11.0039C49.5087 11.332 50.0009 11.6836 50.3759 12.0586C50.7509 12.4336 50.9736 12.7617 51.0439 13.043C51.3251 13.957 51.3954 14.8008 51.2548 15.5742C51.1142 16.3242 50.9267 17.0625 50.6923 17.7891C50.4814 18.4922 50.2939 19.1953 50.1298 19.8984C49.9892 20.6016 50.0478 21.3633 50.3056 22.1836C50.3993 22.3945 50.4931 22.6055 50.5868 22.8164C50.6806 23.0039 50.7978 23.1914 50.9384 23.3789C51.079 23.5664 51.2431 23.7188 51.4306 23.8359C51.1728 23.8125 50.915 23.8008 50.6571 23.8008C50.3993 23.7773 50.165 23.7539 49.954 23.7305C49.6962 23.707 49.4618 23.6836 49.2509 23.6602C49.0165 23.6367 48.7001 23.625 48.3017 23.625C47.622 23.625 46.5673 23.6602 45.1376 23.7305C45.3486 23.2383 45.5126 22.8281 45.6298 22.5C45.7704 22.1484 45.8876 21.8672 45.9814 21.6562C46.0751 21.3984 46.1454 21.1992 46.1923 21.0586C46.4736 20.3789 46.6376 19.6055 46.6845 18.7383C46.7548 17.8711 46.6962 16.9922 46.5087 16.1016C46.4384 15.7969 46.3212 15.4336 46.1571 15.0117C45.9931 14.5898 45.7704 14.1797 45.4892 13.7812C45.2314 13.3828 44.915 13.043 44.54 12.7617C44.1884 12.4805 43.7782 12.3164 43.3095 12.2695C42.8407 12.2227 42.3134 12.3398 41.7275 12.6211C41.165 12.9023 40.5556 13.418 39.8993 14.168C39.4071 14.8008 39.0204 15.5742 38.7392 16.4883C38.4814 17.2617 38.3056 18.2344 38.2118 19.4062C38.1181 20.5547 38.2587 21.9023 38.6337 23.4492C38.3056 23.4023 38.0009 23.3789 37.7197 23.3789C37.4384 23.3555 37.204 23.332 37.0165 23.3086C36.7821 23.2852 36.5712 23.2617 36.3837 23.2383C36.1728 23.2383 35.9384 23.2266 35.6806 23.2031C35.4462 23.2031 35.1532 23.2031 34.8017 23.2031C34.4501 23.1797 34.04 23.1562 33.5712 23.1328ZM63.2157 21.3398C63.872 21.3398 64.4814 21.2695 65.0439 21.1289C65.5126 21.0117 65.9579 20.8242 66.3798 20.5664C66.8251 20.2852 67.1181 19.875 67.2587 19.3359C67.7275 19.4297 68.1259 19.5117 68.454 19.582C68.7821 19.6289 69.0634 19.6758 69.2978 19.7227C69.5556 19.793 69.7782 19.8398 69.9657 19.8633C70.1532 19.9102 70.3759 19.957 70.6337 20.0039C70.8681 20.0508 71.1493 20.1094 71.4775 20.1797C71.829 20.2266 72.2392 20.2969 72.7079 20.3906C72.3564 20.3438 71.9931 20.3789 71.6181 20.4961C71.2665 20.6133 70.9267 20.7422 70.5986 20.8828C70.2236 21.0469 69.872 21.2461 69.5439 21.4805C69.3329 21.6211 69.0868 21.832 68.8056 22.1133C68.5478 22.3945 68.1728 22.6641 67.6806 22.9219C67.1884 23.1797 66.5321 23.4023 65.7118 23.5898C64.915 23.7539 63.8837 23.8125 62.6181 23.7656C61.0947 23.7188 59.8173 23.4492 58.7861 22.957C57.7548 22.4414 56.9228 21.8203 56.29 21.0938C55.6571 20.3438 55.2001 19.5352 54.9189 18.668C54.6376 17.8008 54.4853 16.9922 54.4618 16.2422C54.4384 15.4922 54.6611 14.707 55.1298 13.8867C55.5986 13.0664 56.2548 12.3164 57.0986 11.6367C57.9657 10.957 59.0087 10.4062 60.2275 9.98436C61.4462 9.53904 62.7821 9.31639 64.2353 9.31639C65.079 9.31639 65.8525 9.42186 66.5556 9.63279C67.2821 9.82029 67.9384 10.0781 68.5243 10.4062C69.1337 10.7344 69.6611 11.1094 70.1064 11.5312C70.5517 11.9297 70.9267 12.3398 71.2314 12.7617C71.5361 13.207 71.7939 13.6758 72.0048 14.168C72.1923 14.5898 72.3447 15.0703 72.4618 15.6094C72.579 16.1484 72.6142 16.6992 72.5673 17.2617C70.7861 17.3086 69.3447 17.3438 68.2431 17.3672C67.165 17.3906 66.3212 17.4023 65.7118 17.4023H64.1298H62.9345C62.5126 17.4023 61.9618 17.4141 61.2821 17.4375C60.6025 17.4609 59.7704 17.4961 58.7861 17.543C58.9032 18.4805 59.1962 19.207 59.665 19.7227C60.1571 20.2148 60.6728 20.5898 61.2118 20.8477C61.8212 21.1289 62.4892 21.293 63.2157 21.3398ZM60.0517 15.0117C60.8017 15.0586 61.4228 15.0938 61.915 15.1172C62.4306 15.1406 62.8525 15.1641 63.1806 15.1875C63.5321 15.2109 63.8134 15.2227 64.0243 15.2227H64.9032C65.4892 15.2227 66.579 15.1875 68.1728 15.1172C68.1025 14.0859 67.8798 13.3008 67.5048 12.7617C67.1532 12.2227 66.7782 11.8242 66.3798 11.5664C65.9111 11.2852 65.3954 11.1211 64.8329 11.0742C63.3095 11.0977 62.1728 11.4141 61.4228 12.0234C60.6962 12.6328 60.2392 13.6289 60.0517 15.0117ZM87.1298 0.492171C88.3954 0.539046 89.6728 0.773421 90.9618 1.19529C92.2743 1.59373 93.4814 2.24998 94.5829 3.16404C95.6845 4.05467 96.622 5.21482 97.3954 6.64451C98.1689 8.05076 98.6493 9.77342 98.8368 11.8125C99.0009 13.4766 98.79 15.1289 98.204 16.7695C97.6415 18.3867 96.8564 19.875 95.8486 21.2344C94.8407 22.5938 93.6806 23.7539 92.3681 24.7148C91.0556 25.6523 89.7431 26.2734 88.4306 26.5781C87.6337 26.7656 86.7548 26.7891 85.7939 26.6484C84.8564 26.4844 83.8954 26.1914 82.9111 25.7695C81.9501 25.3242 81.0009 24.7617 80.0634 24.082C79.1493 23.4023 78.3173 22.6289 77.5673 21.7617C76.8173 20.8711 76.1845 19.9102 75.6689 18.8789C75.1767 17.8477 74.872 16.7695 74.7548 15.6445C74.6376 14.707 74.6259 13.6758 74.7197 12.5508C74.8368 11.4023 75.0595 10.2656 75.3876 9.1406C75.7392 7.99217 76.2197 6.8906 76.829 5.83592C77.4618 4.75779 78.2587 3.82029 79.2197 3.02342C80.1806 2.2031 81.3056 1.57029 82.5947 1.12498C83.9071 0.656233 85.4189 0.445295 87.1298 0.492171ZM80.8368 14.7305C80.5087 17.2383 80.7431 19.2539 81.54 20.7773C82.3603 22.3008 83.5907 23.2266 85.2314 23.5547C86.0282 23.7188 86.79 23.5547 87.5165 23.0625C88.2665 22.5469 88.9462 21.8086 89.5556 20.8477C90.165 19.8867 90.6923 18.7617 91.1376 17.4727C91.5829 16.1836 91.9111 14.8359 92.122 13.4297C92.3329 12.0234 92.3447 10.7578 92.1571 9.63279C91.9931 8.48436 91.7001 7.5117 91.2782 6.71482C90.8564 5.89451 90.3407 5.2617 89.7314 4.81639C89.1454 4.37107 88.5361 4.12498 87.9032 4.0781C86.8017 4.00779 85.8407 4.30076 85.0204 4.95701C84.2001 5.58982 83.5087 6.42185 82.9462 7.4531C82.3837 8.48436 81.9267 9.64451 81.5751 10.9336C81.247 12.2227 81.0009 13.4883 80.8368 14.7305ZM101.728 23.1328C101.892 22.3594 102.009 21.6797 102.079 21.0938C102.173 20.4844 102.243 19.9805 102.29 19.582C102.337 19.1133 102.36 18.7148 102.36 18.3867C102.337 17.9883 102.313 17.5195 102.29 16.9805C102.29 16.418 102.267 15.8672 102.22 15.3281C102.196 14.7656 102.161 14.2734 102.114 13.8516C102.067 13.4062 102.009 13.0898 101.939 12.9023C101.845 12.7148 101.716 12.5156 101.552 12.3047C101.224 11.9062 100.743 11.5195 100.11 11.1445C100.649 11.0273 101.106 10.9336 101.481 10.8633C101.88 10.7695 102.208 10.6875 102.466 10.6172C102.747 10.5234 102.993 10.4414 103.204 10.3711C103.392 10.3008 103.614 10.2305 103.872 10.1602C104.083 10.1133 104.341 10.0547 104.646 9.98436C104.95 9.91404 105.302 9.83201 105.7 9.73826L105.595 12.9375C106.345 12.0469 107.106 11.3789 107.88 10.9336C108.653 10.4883 109.38 10.1719 110.06 9.98436C110.833 9.74998 111.595 9.63279 112.345 9.63279C113.282 9.67967 114.149 9.83201 114.946 10.0898C115.767 10.3477 116.47 10.6523 117.056 11.0039C117.665 11.332 118.157 11.6836 118.532 12.0586C118.907 12.4336 119.13 12.7617 119.2 13.043C119.481 13.957 119.552 14.8008 119.411 15.5742C119.271 16.3242 119.083 17.0625 118.849 17.7891C118.638 18.4922 118.45 19.1953 118.286 19.8984C118.146 20.6016 118.204 21.3633 118.462 22.1836C118.556 22.3945 118.649 22.6055 118.743 22.8164C118.837 23.0039 118.954 23.1914 119.095 23.3789C119.235 23.5664 119.399 23.7188 119.587 23.8359C119.329 23.8125 119.071 23.8008 118.813 23.8008C118.556 23.7773 118.321 23.7539 118.11 23.7305C117.853 23.707 117.618 23.6836 117.407 23.6602C117.173 23.6367 116.856 23.625 116.458 23.625C115.778 23.625 114.724 23.6602 113.294 23.7305C113.505 23.2383 113.669 22.8281 113.786 22.5C113.927 22.1484 114.044 21.8672 114.138 21.6562C114.231 21.3984 114.302 21.1992 114.349 21.0586C114.63 20.3789 114.794 19.6055 114.841 18.7383C114.911 17.8711 114.853 16.9922 114.665 16.1016C114.595 15.7969 114.478 15.4336 114.313 15.0117C114.149 14.5898 113.927 14.1797 113.646 13.7812C113.388 13.3828 113.071 13.043 112.696 12.7617C112.345 12.4805 111.935 12.3164 111.466 12.2695C110.997 12.2227 110.47 12.3398 109.884 12.6211C109.321 12.9023 108.712 13.418 108.056 14.168C107.563 14.8008 107.177 15.5742 106.896 16.4883C106.638 17.2617 106.462 18.2344 106.368 19.4062C106.274 20.5547 106.415 21.9023 106.79 23.4492C106.462 23.4023 106.157 23.3789 105.876 23.3789C105.595 23.3555 105.36 23.332 105.173 23.3086C104.939 23.2852 104.728 23.2617 104.54 23.2383C104.329 23.2383 104.095 23.2266 103.837 23.2031C103.603 23.2031 103.31 23.2031 102.958 23.2031C102.606 23.1797 102.196 23.1562 101.728 23.1328ZM131.372 21.3398C132.028 21.3398 132.638 21.2695 133.2 21.1289C133.669 21.0117 134.114 20.8242 134.536 20.5664C134.981 20.2852 135.274 19.875 135.415 19.3359C135.884 19.4297 136.282 19.5117 136.61 19.582C136.939 19.6289 137.22 19.6758 137.454 19.7227C137.712 19.793 137.935 19.8398 138.122 19.8633C138.31 19.9102 138.532 19.957 138.79 20.0039C139.024 20.0508 139.306 20.1094 139.634 20.1797C139.985 20.2266 140.396 20.2969 140.864 20.3906C140.513 20.3438 140.149 20.3789 139.774 20.4961C139.423 20.6133 139.083 20.7422 138.755 20.8828C138.38 21.0469 138.028 21.2461 137.7 21.4805C137.489 21.6211 137.243 21.832 136.962 22.1133C136.704 22.3945 136.329 22.6641 135.837 22.9219C135.345 23.1797 134.689 23.4023 133.868 23.5898C133.071 23.7539 132.04 23.8125 130.774 23.7656C129.251 23.7188 127.974 23.4492 126.942 22.957C125.911 22.4414 125.079 21.8203 124.446 21.0938C123.813 20.3438 123.356 19.5352 123.075 18.668C122.794 17.8008 122.642 16.9922 122.618 16.2422C122.595 15.4922 122.817 14.707 123.286 13.8867C123.755 13.0664 124.411 12.3164 125.255 11.6367C126.122 10.957 127.165 10.4062 128.384 9.98436C129.603 9.53904 130.939 9.31639 132.392 9.31639C133.235 9.31639 134.009 9.42186 134.712 9.63279C135.439 9.82029 136.095 10.0781 136.681 10.4062C137.29 10.7344 137.817 11.1094 138.263 11.5312C138.708 11.9297 139.083 12.3398 139.388 12.7617C139.692 13.207 139.95 13.6758 140.161 14.168C140.349 14.5898 140.501 15.0703 140.618 15.6094C140.735 16.1484 140.771 16.6992 140.724 17.2617C138.942 17.3086 137.501 17.3438 136.399 17.3672C135.321 17.3906 134.478 17.4023 133.868 17.4023H132.286H131.091C130.669 17.4023 130.118 17.4141 129.439 17.4375C128.759 17.4609 127.927 17.4961 126.942 17.543C127.06 18.4805 127.353 19.207 127.821 19.7227C128.313 20.2148 128.829 20.5898 129.368 20.8477C129.978 21.1289 130.646 21.293 131.372 21.3398ZM128.208 15.0117C128.958 15.0586 129.579 15.0938 130.071 15.1172C130.587 15.1406 131.009 15.1641 131.337 15.1875C131.689 15.2109 131.97 15.2227 132.181 15.2227H133.06C133.646 15.2227 134.735 15.1875 136.329 15.1172C136.259 14.0859 136.036 13.3008 135.661 12.7617C135.31 12.2227 134.935 11.8242 134.536 11.5664C134.067 11.2852 133.552 11.1211 132.989 11.0742C131.466 11.0977 130.329 11.4141 129.579 12.0234C128.853 12.6328 128.396 13.6289 128.208 15.0117ZM143.544 2.21482C143.989 2.54295 144.435 2.78904 144.88 2.9531C145.349 3.09373 145.771 3.18748 146.146 3.23436C146.567 3.30467 146.989 3.31639 147.411 3.26951C147.81 3.22264 148.22 3.08201 148.642 2.84764C149.063 2.61326 149.556 2.36717 150.118 2.10936C150.681 1.85154 151.337 1.62889 152.087 1.44139C152.86 1.23045 153.786 1.12498 154.864 1.12498C155.333 1.12498 155.825 1.21873 156.341 1.40623C156.88 1.59373 157.396 1.83982 157.888 2.14451C158.38 2.42576 158.825 2.74217 159.224 3.09373C159.646 3.44529 159.962 3.79686 160.173 4.14842C160.407 4.49998 160.571 5.0742 160.665 5.87107C160.759 6.64451 160.794 7.48826 160.771 8.40232C160.747 9.31639 160.665 10.2188 160.524 11.1094C160.407 12 160.231 12.7266 159.997 13.2891C159.716 13.7812 159.177 14.4141 158.38 15.1875C157.7 15.8438 156.681 16.6875 155.321 17.7188C153.962 18.75 152.134 19.9805 149.837 21.4102C151.196 21.3867 152.333 21.3516 153.247 21.3047C154.185 21.2344 154.946 21.1641 155.532 21.0938C156.212 21 156.751 20.9062 157.149 20.8125C157.501 20.6719 157.876 20.4727 158.274 20.2148C158.603 19.9805 158.954 19.6758 159.329 19.3008C159.728 18.9258 160.114 18.4336 160.489 17.8242C160.56 19.0898 160.63 20.0859 160.7 20.8125C160.747 21.2344 160.782 21.5977 160.806 21.9023C160.829 22.1836 160.853 22.5117 160.876 22.8867C160.899 23.2148 160.911 23.5898 160.911 24.0117C160.935 24.4336 160.97 24.8789 161.017 25.3477C159.845 25.043 158.778 24.8086 157.817 24.6445C156.856 24.457 156.036 24.3281 155.356 24.2578C154.56 24.1641 153.845 24.1172 153.212 24.1172C152.556 24.1406 151.829 24.1992 151.032 24.293C150.329 24.3867 149.485 24.5273 148.501 24.7148C147.54 24.8789 146.45 25.125 145.231 25.4531C145.138 25.1953 145.056 24.9375 144.985 24.6797C144.915 24.3984 144.856 24.1289 144.81 23.8711C144.739 23.5898 144.681 23.3086 144.634 23.0273C144.587 22.7461 144.54 22.4766 144.493 22.2188C144.446 21.9844 144.411 21.7383 144.388 21.4805C144.364 21.2227 144.341 20.9766 144.317 20.7422C146.192 19.5469 147.716 18.4688 148.888 17.5078C150.06 16.5234 150.985 15.6914 151.665 15.0117C152.439 14.2148 153.024 13.4883 153.423 12.832C153.821 12.0352 154.149 11.1562 154.407 10.1953C154.665 9.23436 154.747 8.34373 154.653 7.52342C154.583 6.7031 154.302 6.03514 153.81 5.51951C153.317 4.98045 152.532 4.74607 151.454 4.81639C150.751 4.86326 150.083 5.10936 149.45 5.55467C148.841 5.99998 148.278 6.53904 147.763 7.17186C147.247 7.80467 146.79 8.48436 146.392 9.21092C145.993 9.91404 145.653 10.582 145.372 11.2148C145.114 11.8477 144.903 12.375 144.739 12.7969C144.599 13.2188 144.528 13.4414 144.528 13.4648C144.505 13.5117 144.47 13.3359 144.423 12.9375C144.399 12.5391 144.364 12.0469 144.317 11.4609C144.294 10.8516 144.259 10.2188 144.212 9.56248C144.165 8.90623 144.118 8.35545 144.071 7.91014C144.048 7.55857 144.013 7.10154 143.966 6.53904C143.896 5.62498 143.755 4.18357 143.544 2.21482ZM164.364 5.2031C165.185 4.94529 165.853 4.73435 166.368 4.57029C166.884 4.38279 167.306 4.23045 167.634 4.11326C168.009 3.97264 168.29 3.84373 168.478 3.72654L169.321 3.30467C169.649 3.14061 170.071 2.92967 170.587 2.67186C171.103 2.3906 171.771 2.03904 172.591 1.61717C172.403 2.50779 172.263 3.35154 172.169 4.14842C172.099 4.92186 172.04 5.61326 171.993 6.22264C171.923 6.92576 171.888 7.57029 171.888 8.15623C171.864 8.64842 171.829 9.30467 171.782 10.125C171.759 10.9453 171.724 11.8359 171.677 12.7969C171.63 13.7578 171.583 14.7422 171.536 15.75C171.489 16.7578 171.454 17.707 171.431 18.5977C171.431 19.4648 171.442 20.2148 171.466 20.8477C171.513 21.4805 171.595 21.9141 171.712 22.1484C171.829 22.4297 171.981 22.6992 172.169 22.957C172.333 23.1914 172.521 23.4609 172.731 23.7656C172.966 24.0469 173.247 24.3281 173.575 24.6094C173.036 24.7266 172.532 24.832 172.063 24.9258C171.595 24.9961 171.185 25.0547 170.833 25.1016C170.411 25.1719 170.036 25.2305 169.708 25.2773C169.356 25.3008 168.876 25.3594 168.267 25.4531C167.751 25.5234 167.095 25.6172 166.298 25.7344C165.501 25.8281 164.517 25.9336 163.345 26.0508C163.954 25.6758 164.435 25.3125 164.786 24.9609C165.161 24.6094 165.442 24.3047 165.63 24.0469C165.841 23.7422 165.97 23.4492 166.017 23.168C166.04 22.9805 166.075 22.4766 166.122 21.6562C166.192 20.8125 166.251 19.8281 166.298 18.7031C166.368 17.5547 166.427 16.3359 166.474 15.0469C166.544 13.7344 166.591 12.5156 166.614 11.3906C166.638 10.2656 166.649 9.30467 166.649 8.50779C166.649 7.71092 166.614 7.23045 166.544 7.06639C166.45 6.90232 166.31 6.71482 166.122 6.50389C165.958 6.31639 165.735 6.11717 165.454 5.90623C165.196 5.69529 164.833 5.46092 164.364 5.2031Z" fill="#394BA7"/>
</svg>
