<svg width="122" height="46" viewBox="0 0 122 46" fill="none" xmlns="http://www.w3.org/2000/svg">
<path d="M8.92188 45C12.6953 45 16.2578 43.125 18.9531 41.25C20.5 40.1484 21.9531 38.9062 23.3359 37.4766L20.3125 34.3359C17.875 36.7031 13.0469 40.0312 9.29688 40.0312C8.10156 40.0312 7.30469 39.6094 6.34375 37.8984C11.8047 36.3984 15.8359 32.25 15.8359 28.3828C15.8359 24.8438 13.1641 22.5234 9.67188 22.5234C3.25 22.5234 0.109375 29.9297 0.109375 35.2266C0.109375 40.4062 3.03906 45 8.92188 45ZM5.80469 33.9844C5.80469 31.8984 6.17969 27 10.1875 27C10.9375 27 11.5234 28.0078 11.5234 29.4141C11.5234 31.3828 8.03125 33.9844 5.80469 33.9844ZM27.1875 25.875C31.5469 20.5781 36.4688 13.6406 36.4688 7.71094C36.4688 3.46875 35.7422 0 30.9844 0C24.6328 0 20.9062 16.8516 19.4062 26.0391C18.6562 30.6328 18.2578 34.4062 18 37.1484C17.8594 38.7422 17.7656 40.1719 17.7188 41.4375C18.8438 42.1172 20.0156 42.7031 21.2578 43.2188C23.3906 44.1328 26.1094 45 28.7578 45H29.3438C29.9297 44.7656 30.4922 44.5312 31.0078 44.2734C31.9219 43.8281 32.9297 43.2891 33.4688 42.75C37.875 41.7422 41.1328 40.3594 44.5781 37.2422L42.7734 33.375C40.2891 35.8594 37.9922 36.9141 35.7188 38.25C37.5703 35.3906 37.9688 32.9531 37.9688 29.7891C37.9688 25.9922 35.7891 22.5 32.1328 22.5C30.7031 22.5 29.3203 23.9531 27.5625 26.1328L27.1875 25.875ZM29.6719 27.8438C32.1328 27.8438 32.7188 29.2266 32.7188 30.7734C32.7188 34.3594 31.3594 40.5 28.125 40.5C27.2109 40.5 26.1797 40.3125 25.2656 40.125C24.75 40.0078 24.2344 39.8906 23.7188 39.7266C23.7656 39.1875 23.8125 38.6016 23.8828 37.9688C24 36.8672 24.1875 35.4375 24.4688 33.75C25.1484 29.5781 27.4922 27.8438 29.6719 27.8438ZM31.9688 6.375C31.5 13.0312 27.0234 19.1016 24.4688 24.0234C25.2188 19.8984 28.1953 4.5 30.7734 4.5C31.8281 4.5 31.9688 6.11719 31.9688 6.375ZM42.7812 38.1562C42.9688 41.1328 43.0156 45.2578 46.6484 45.2578C48.8281 45.2578 51.7578 40.7578 53.5859 36.9844C53.6562 39.3281 55.6719 41.6016 59.0234 41.6016C61.0156 41.6016 63.3125 40.7578 65.375 39.4453V33.9375C64.6953 34.3828 64.0391 34.8047 63.4062 35.1562C62.3047 35.7891 60.9688 36.3516 60.0312 36.3516C57.5 36.3516 56.8672 34.8281 56.8672 33.3281C56.8672 32.6016 56.9844 31.9219 57.1484 31.3828C57.2188 31.0781 57.3125 30.7969 57.4297 30.5156C58.8125 27.4453 59.7969 26.1797 59.7969 24.4688C59.7969 23.3203 58.6016 22.5 56.7969 22.5C55.4375 22.5 54.2656 23.2969 54.0781 24.1641L47.9141 38.8594L47.5859 38.8828L48.5 24.0469C48.4766 23.2266 47.8672 22.5 46.8125 22.5C46.6484 22.5 46.5312 22.5234 46.3672 22.5469L43.5547 22.9922C42.5469 23.1562 42.3594 25.0078 42.3594 28.2188C42.3594 30.7031 42.5469 32.7188 42.7344 37.4062L42.7812 38.1562ZM77.2656 40.5234C77.2656 38.0859 75.9062 36.7266 73.3047 36.7266C70.2812 36.7266 69.0156 38.9297 69.0156 41.2031C69.0156 43.875 70.5625 45 72.8594 45C77.1953 45 77.2656 40.9219 77.2656 40.5234ZM95.7656 35.25C93.7031 36.9375 90.1875 40.5 87.9609 40.5C87 40.5 86.7656 39.6094 86.7656 38.2031C86.7656 33.8672 89.9062 25.9219 89.9062 23.8359C89.9062 23.0156 89.5312 22.5 88.2188 22.5C86.8125 22.5 84.3984 23.1562 83.9531 24.7734C82.8281 29.4609 80.7656 36.3281 80.7656 40.2891C80.7656 43.125 81.8672 45 85.125 45C88.7344 45 93.5156 42.0703 95.7656 40.0078V35.25ZM85.2891 15.9141C85.2891 18.0703 86.5781 19.4766 89.3203 19.4766C92.5078 19.4766 93.8672 17.3906 93.8672 15.2812C93.8672 12.9375 92.0625 12 89.8828 12C86.4141 12 85.2891 14.4844 85.2891 15.9141ZM104.938 27.2812C105.031 27.1875 105.008 33.9141 105.289 35.1797C104.938 36.0938 104.539 36.8906 104.094 37.6172C103.344 38.8594 102.266 40.0547 101.141 40.0547C98.9609 40.0547 98.5156 38.6719 98.5156 37.4297C98.5156 34.2891 100.789 29.2969 104.938 27.2812ZM120.359 34.9922C119.422 35.7891 118.531 36.4922 117.664 37.125C116.141 38.2031 114.406 39.2578 113.234 39.2578C111.992 39.2578 111.594 37.6172 111.594 35.8359C111.594 34.4297 111.992 32.625 112.297 31.7812C115.555 23.9062 119.422 17.4375 120.242 8.57812C120.289 7.99219 120.312 7.42969 120.312 6.89062C120.312 3.30469 119.234 0 116.281 0C110.328 0 105.125 11.7656 104.844 23.7891C97.7188 24.4453 92.8906 31.2891 92.8906 37.2656C92.8906 41.1797 94.8125 45 98.8438 45C101.703 45 104.633 43.0781 106.953 40.8281C108.453 44.4609 111.312 44.9766 112.18 44.9766C113.727 44.9766 115.953 43.8281 117.781 42.7031C118.859 42.0234 119.961 41.2734 121.062 40.4062L120.359 34.9922ZM115.953 10.2891C115.648 13.5938 114.289 17.8125 113.023 21.2812C112.273 23.2969 111.453 25.3125 110.562 27.3516V27.1172C110.562 26.1797 110.562 23.5078 110.82 20.4141C111.008 18.1406 112.227 5.4375 115.227 5.4375C115.789 5.4375 116.094 6 116.094 7.6875C116.094 8.32031 116.047 9.1875 115.953 10.2891Z" fill="black"/>
</svg>
