<svg width="13" height="21" viewBox="0 0 13 21" fill="none" xmlns="http://www.w3.org/2000/svg">
<path d="M8 21H4C3.73478 21 3.48043 20.8947 3.29289 20.7071C3.10536 20.5196 3 20.2652 3 20V13.8H1C0.734784 13.8 0.48043 13.6947 0.292893 13.5071C0.105357 13.3196 0 13.0652 0 12.8V9.20002C0 8.9348 0.105357 8.68045 0.292893 8.49291C0.48043 8.30537 0.734784 8.20002 1 8.20002H3V6.50002C3.0701 4.97637 3.74062 3.54246 4.86497 2.5118C5.98932 1.48115 7.47602 0.937605 9 1.00002H12C12.2652 1.00002 12.5196 1.10537 12.7071 1.29291C12.8946 1.48045 13 1.7348 13 2.00002V5.60002C13 5.86523 12.8946 6.11959 12.7071 6.30712C12.5196 6.49466 12.2652 6.60002 12 6.60002H9V8.20002H12C12.1544 8.19885 12.307 8.23345 12.4458 8.30111C12.5846 8.36877 12.7058 8.46766 12.8 8.59002C12.8931 8.71421 12.9561 8.85839 12.9839 9.01113C13.0116 9.16387 13.0035 9.32098 12.96 9.47002L11.96 13.07C11.8995 13.2863 11.768 13.476 11.5866 13.6084C11.4052 13.7408 11.1844 13.8083 10.96 13.8H9V20C9 20.2652 8.89464 20.5196 8.70711 20.7071C8.51957 20.8947 8.26522 21 8 21ZM5 19H7V12.8C7 12.5348 7.10536 12.2804 7.29289 12.0929C7.48043 11.9054 7.73478 11.8 8 11.8H10.24L10.68 10.2H8C7.73478 10.2 7.48043 10.0947 7.29289 9.90712C7.10536 9.71959 7 9.46523 7 9.20002V6.50002C7.02568 5.9871 7.24767 5.50373 7.62 5.15002C7.99233 4.79631 8.48645 4.59937 9 4.60002H11V3.00002H9C8.00681 2.93951 7.02982 3.27305 6.28098 3.92828C5.53214 4.58351 5.07186 5.50758 5 6.50002V9.20002C5 9.46523 4.89464 9.71959 4.70711 9.90712C4.51957 10.0947 4.26522 10.2 4 10.2H2V11.8H4C4.26522 11.8 4.51957 11.9054 4.70711 12.0929C4.89464 12.2804 5 12.5348 5 12.8V19Z" fill="#6E7191"/>
</svg>
