<svg width="106" height="35" viewBox="0 0 106 35" fill="none" xmlns="http://www.w3.org/2000/svg">
<g clip-path="url(#clip0)">
<path d="M57.5988 30.2568C57.4896 32.3116 56.5752 33.7174 54.8221 34.5705C54.3125 34.817 53.8379 34.6215 53.6063 34.0995C53.4273 33.6955 53.6326 33.2376 54.1116 33.0232C55.3536 32.4691 55.8982 31.333 55.8749 30.2626C55.8457 28.9603 55.0682 27.9672 53.8437 27.5399C52.6643 27.1301 51.4325 27.5282 50.5618 28.603C49.8934 29.4284 49.8366 30.8547 50.4234 31.8099C50.7481 32.3407 51.1777 32.7403 51.7426 33.0072C52.2755 33.258 52.4633 33.7218 52.2479 34.1811C52.028 34.6493 51.5067 34.7995 50.984 34.534C49.5804 33.8253 48.6602 32.7228 48.3791 31.158C47.9351 28.6847 49.477 26.4666 51.6989 25.8511C54.3256 25.1234 56.8475 26.7859 57.4357 29.1907C57.5275 29.5699 57.5551 29.9666 57.5988 30.2568Z" fill="#00AA11"/>
<path d="M64.3047 27.7456C64.3193 27.5487 64.3295 27.3926 64.3426 27.2133C64.7968 27.2133 65.2337 27.2133 65.6981 27.2133C65.7083 27.3124 65.7273 27.4072 65.7273 27.502C65.7287 29.1062 65.736 30.7118 65.7244 32.3174C65.7156 33.3076 65.3341 34.1229 64.4503 34.6216C63.3437 35.2487 61.6169 35.0518 60.6282 34.2191C60.535 34.1404 60.4462 34.0572 60.337 33.9595C60.6311 33.6693 60.9194 33.3849 61.2368 33.0729C61.7304 33.4695 62.2837 33.6693 62.9302 33.6504C63.9276 33.6197 64.4197 33.0729 64.2901 32.0083C63.4544 32.6631 62.5342 32.6879 61.5979 32.3743C61.0403 32.1876 60.6005 31.8143 60.2875 31.2922C59.6279 30.1912 59.7983 28.7941 60.7112 27.941C61.6897 27.0266 63.169 26.9333 64.3047 27.7456ZM64.2479 29.8791C64.2479 28.9487 63.7441 28.4412 62.8268 28.4499C61.9634 28.4572 61.3824 29.0245 61.3504 29.812C61.3096 30.8401 61.9765 31.3024 62.8589 31.2908C63.766 31.2776 64.2479 30.7979 64.2479 29.8791Z" fill="black"/>
<path d="M87.3005 27.1972C86.4647 27.9861 85.7032 28.7066 84.9301 29.4372C85.7163 30.4843 86.4851 31.508 87.3063 32.6018C86.7443 32.6018 86.2798 32.6163 85.8168 32.5916C85.7091 32.5857 85.5809 32.4705 85.5081 32.3728C85.0801 31.8011 84.668 31.2178 84.2487 30.6403C84.1788 30.5426 84.103 30.4493 83.9778 30.283C83.6764 30.6286 83.292 30.8999 83.161 31.2645C83.0241 31.6451 83.1304 32.1132 83.1304 32.6032C82.88 32.6032 82.663 32.6032 82.4461 32.6032C82.2393 32.6032 82.0311 32.6032 81.7909 32.6032C81.7807 32.4413 81.7676 32.3116 81.7676 32.1803C81.7661 30.1561 81.7763 28.1305 81.7559 26.1049C81.753 25.7155 81.8724 25.6032 82.2393 25.6426C82.5174 25.6732 82.7999 25.6484 83.126 25.6484C83.126 26.8793 83.126 28.0664 83.126 29.3541C83.5497 28.9705 83.9036 28.657 84.2501 28.3361C84.6039 28.0109 84.9475 27.6755 85.3028 27.3532C85.38 27.2832 85.4863 27.2059 85.5824 27.203C86.1182 27.1899 86.6555 27.1972 87.3005 27.1972Z" fill="black"/>
<path d="M76.8376 30.3589C76.9221 30.9305 77.4681 31.368 78.0971 31.4176C78.6285 31.4599 79.1265 31.3826 79.5604 31.037C79.6303 30.9816 79.7788 30.9378 79.8385 30.9743C80.1297 31.1537 80.402 31.3607 80.7078 31.5766C79.7657 32.5172 78.6926 32.7753 77.4608 32.4705C76.4576 32.2226 75.731 31.6582 75.4951 30.6287C74.9841 28.3872 76.708 26.9055 78.6999 27.2439C79.856 27.4393 80.5753 28.1189 80.8461 29.2505C80.9276 29.5889 80.9043 29.952 80.932 30.3589C80.2084 30.3589 79.5342 30.3589 78.8601 30.3589C78.1961 30.3589 77.5307 30.3589 76.8376 30.3589ZM79.5124 29.3264C79.4192 28.6541 78.8848 28.3332 77.9864 28.3755C77.3429 28.4047 76.906 28.7722 76.874 29.3264C77.7476 29.3264 78.6184 29.3264 79.5124 29.3264Z" fill="black"/>
<path d="M69.4024 27.1199C70.9953 27.1841 72.1791 28.1772 72.2985 29.7245C72.3786 30.7803 71.9155 31.6276 70.9895 32.1964C69.928 32.8483 68.2449 32.6733 67.3465 31.8041C65.9982 30.4989 66.4102 28.1976 68.1371 27.4758C68.5375 27.3081 68.9787 27.2366 69.4024 27.1199ZM70.8512 29.9024C70.8483 29.0245 70.2891 28.4441 69.4432 28.4499C68.4938 28.4572 67.9973 29.0697 67.9653 29.9053C67.9347 30.7089 68.622 31.3535 69.4272 31.3476C70.2877 31.3403 70.8541 30.7658 70.8512 29.9024Z" fill="black"/>
<path d="M73.1336 27.2001C73.6213 27.2001 74.0509 27.2001 74.5401 27.2001C74.5401 27.3211 74.5401 27.4378 74.5401 27.5545C74.5401 29.5072 74.5401 31.4599 74.5387 33.4126C74.5387 34.397 73.965 34.9701 72.9807 34.973C72.6021 34.9745 72.2221 34.9745 71.8027 34.9745C71.8027 34.7426 71.8027 34.5486 71.8027 34.3547C71.8027 34.1593 71.8027 33.9624 71.8027 33.6984C72.0561 33.6984 72.2861 33.7072 72.5147 33.6955C73.0346 33.6707 73.1336 33.5643 73.1336 33.0509C73.1336 31.247 73.1336 29.443 73.1336 27.6391C73.1336 27.5049 73.1336 27.3722 73.1336 27.2001Z" fill="black"/>
<path d="M51.2246 30.2772C51.1183 29.4868 52.1186 28.5359 52.9675 28.5914C53.9081 28.6541 54.6856 29.3876 54.6798 30.3282C54.674 31.2645 53.8615 32.0914 52.9267 32.0666C51.9905 32.0418 51.1693 31.2995 51.2246 30.2772Z" fill="#00AA11"/>
<path d="M18.6914 27.8549H20.1431C20.9337 27.8549 21.4011 28.3012 21.4011 29.0172C21.4011 29.7449 20.9395 30.1708 20.1431 30.1708H19.1326V31.6247H18.6914V27.8549ZM20.1169 29.7508C20.692 29.7508 20.9556 29.5189 20.9556 29.0172C20.9556 28.517 20.6804 28.2749 20.1169 28.2749H19.1326V29.7508H20.1169Z" fill="black"/>
<path d="M22.9612 28.6891C23.7678 28.6891 24.3065 29.2972 24.3065 30.197C24.3065 31.0968 23.7678 31.7049 22.9612 31.7049C22.1603 31.7049 21.623 31.0968 21.623 30.197C21.623 29.2972 22.1603 28.6891 22.9612 28.6891ZM22.9612 29.0828C22.3977 29.0828 22.0424 29.513 22.0424 30.197C22.0424 30.881 22.3977 31.3112 22.9612 31.3112C23.5261 31.3112 23.8872 30.881 23.8872 30.197C23.8872 29.513 23.5261 29.0828 22.9612 29.0828Z" fill="black"/>
<path d="M24.5781 28.7693H24.9916L25.5071 30.9889H25.5187L26.2817 28.7693H26.6632L27.4276 30.9889H27.4378L27.9547 28.7693H28.3682L27.6853 31.6247H27.2878L26.4812 29.2928H26.4695L25.6585 31.6247H25.2596L24.5781 28.7693Z" fill="black"/>
<path d="M29.9583 28.6891C30.7228 28.6891 31.2324 29.2651 31.2324 30.1051V30.321H29.0658C29.0774 30.8708 29.4269 31.3228 29.9481 31.3228C30.3515 31.3228 30.5772 31.177 30.8189 30.7512L31.1683 30.9612C30.9266 31.4512 30.5131 31.7049 29.9583 31.7049C29.1677 31.7049 28.6406 31.0968 28.6406 30.197C28.6406 29.2972 29.1852 28.6891 29.9583 28.6891ZM30.8087 29.9812C30.8028 29.7172 30.7169 29.5028 30.5611 29.3293C30.4053 29.1572 30.2059 29.0712 29.9583 29.0712C29.4749 29.0712 29.0876 29.5028 29.0774 29.9812H30.8087Z" fill="black"/>
<path d="M31.832 28.7693H32.2295V29.007H32.2397C32.3475 28.8291 32.5571 28.7212 32.8309 28.7212C32.9168 28.7212 33.0144 28.7372 33.1163 28.7649L33.0245 29.201C32.9226 29.1689 32.8265 29.1528 32.745 29.1528C32.4072 29.1528 32.2499 29.3789 32.2499 29.9112V31.6247H31.832V28.7693Z" fill="black"/>
<path d="M34.6263 28.6891C35.3893 28.6891 35.9003 29.2651 35.9003 30.1051V30.321H33.7338C33.7439 30.8708 34.0934 31.3228 34.6147 31.3228C35.018 31.3228 35.2451 31.177 35.4868 30.7512L35.8363 30.9612C35.5946 31.4512 35.1796 31.7049 34.6263 31.7049C33.8357 31.7049 33.3086 31.0968 33.3086 30.197C33.3086 29.2972 33.8517 28.6891 34.6263 28.6891ZM35.4752 29.9812C35.4708 29.7172 35.3849 29.5028 35.2291 29.3293C35.0719 29.1572 34.8738 29.0712 34.6263 29.0712C34.1429 29.0712 33.7556 29.5028 33.7439 29.9812H35.4752Z" fill="black"/>
<path d="M37.6685 28.6891C38.0136 28.6891 38.3194 28.8349 38.5072 29.0711H38.5189V27.693H38.9382V31.6247H38.5349V31.3389H38.5232C38.3354 31.5707 38.018 31.7049 37.6685 31.7049C36.9274 31.7049 36.3887 31.0851 36.3887 30.197C36.3887 29.3089 36.9274 28.6891 37.6685 28.6891ZM38.5189 29.917C38.5189 29.4532 38.1417 29.0828 37.6685 29.0828C37.1575 29.0828 36.808 29.5232 36.808 30.197C36.808 30.8707 37.1575 31.3111 37.6962 31.3111C38.1476 31.3111 38.5189 30.9349 38.5189 30.4711V29.917Z" fill="black"/>
<path d="M41.5034 31.3389V31.6247H41.1016V27.693H41.5194V29.0711H41.5311C41.7189 28.8349 42.0261 28.6891 42.3698 28.6891C43.1124 28.6891 43.6496 29.3089 43.6496 30.197C43.6496 31.0851 43.1124 31.7049 42.3698 31.7049C42.0203 31.7049 41.7029 31.5707 41.5151 31.3389H41.5034ZM42.3698 29.0828C41.8966 29.0828 41.5194 29.4532 41.5194 29.917V30.4711C41.5194 30.9349 41.8907 31.3111 42.3421 31.3111C42.8808 31.3111 43.2303 30.8707 43.2303 30.197C43.2303 29.5232 42.8808 29.0828 42.3698 29.0828Z" fill="black"/>
<path d="M44.8855 31.3812L43.7891 28.7693H44.2361L45.101 30.897H45.1112L45.9833 28.7693H46.4289L44.7195 32.8351H44.2841L44.8855 31.3812Z" fill="black"/>
<path d="M11.5654 0.00949097C17.9516 0.00949097 23.1293 5.01449 23.1293 11.1876C23.1293 17.3607 17.9516 22.3657 11.5654 22.3657C5.17769 22.3657 0 17.3607 0 11.1876C0 5.01449 5.17769 0.00949097 11.5654 0.00949097Z" fill="#00AED6"/>
<path fill-rule="evenodd" clip-rule="evenodd" d="M18.311 10.8434C18.2222 9.4201 16.97 8.32927 15.4965 8.39343H8.19152C7.92506 8.39343 7.70957 8.18489 7.70957 7.92677C7.70957 7.6701 7.92506 7.46156 8.19152 7.46156H15.5926C15.5504 6.4976 14.8689 5.66927 13.9065 5.4126C11.7486 5.03927 9.53982 5.03927 7.38196 5.4126C6.15597 5.70427 5.23866 6.6901 5.06976 7.89906C4.73196 10.0924 4.73196 12.3207 5.06976 14.5126C5.32748 15.793 6.37874 16.7832 7.70957 17.0005C10.3843 17.3257 13.0911 17.3257 15.7659 17.0005C16.9584 16.7672 17.8597 15.8207 18.0023 14.6526C18.247 13.397 18.3503 12.1195 18.311 10.8434ZM15.9013 12.4082V12.818C15.9013 13.0747 15.6858 13.2832 15.4193 13.2832C15.1529 13.2832 14.9374 13.0747 14.9374 12.818V12.4082C14.7816 12.277 14.6942 12.0859 14.6971 11.8861C14.6971 11.4997 15.0204 11.1876 15.4193 11.1876C15.8183 11.1876 16.1415 11.4997 16.1415 11.8861C16.1401 12.0845 16.0527 12.2741 15.9013 12.4082Z" fill="white"/>
<path d="M56.0688 9.93052C56.0848 7.97052 54.4541 6.36927 52.4258 6.35323C50.3975 6.33865 48.742 7.91365 48.726 9.87365C48.71 11.8336 50.3408 13.4364 52.369 13.4509C52.388 13.4509 52.4069 13.4509 52.4258 13.4509C54.3492 13.5516 55.9931 12.1239 56.0965 10.2645C56.1023 10.1536 56.1023 10.0414 56.098 9.93052H56.0688ZM45.1602 9.93052C45.1602 6.20448 48.2047 3.36365 52.4258 3.36365C56.6469 3.36365 59.6929 6.22198 59.6929 9.93052C59.6929 13.6376 56.676 16.5061 52.4258 16.5061C48.1756 16.5061 45.1602 13.6464 45.1602 9.93052Z" fill="black"/>
<path d="M39.377 10.6101C39.377 12.1472 37.7578 13.4043 35.7063 13.4043C33.8207 13.5895 32.1375 12.2609 31.9468 10.438C31.9278 10.2543 31.9249 10.0691 31.938 9.88386C31.938 7.8524 33.48 6.45532 35.8504 6.45532C37.7782 6.45532 39.377 7.73136 39.377 9.17511V10.6101ZM39.5211 3.35345V4.8249C38.349 3.79532 36.7954 3.26886 35.2141 3.36365C31.475 3.39574 28.4726 6.35324 28.5061 9.96699C28.5411 13.5807 31.6002 16.4843 35.3394 16.4507C36.8784 16.5178 38.3767 15.9607 39.4731 14.9137V16.1707C39.4731 17.8755 37.9515 19.1239 35.9465 19.1239C34.4162 19.2303 32.9078 18.7184 31.7837 17.7078L29.4409 19.888C31.1969 21.5534 33.5834 22.4489 36.0426 22.3657C40.1487 22.3657 42.9618 19.7014 42.9618 16.1532V3.35345H39.5211Z" fill="black"/>
<path d="M61.8145 3.73553H65.2638V4.83512H65.3119C66.4432 3.83761 67.9371 3.31553 69.466 3.38116C73.2211 3.51824 76.1507 6.57199 76.0094 10.2003C75.8755 13.6391 73.0231 16.3953 69.466 16.5251C68.0056 16.5572 66.5801 16.0935 65.4371 15.2112V21.4339H61.8436L61.8145 3.73553ZM68.9069 6.45532C66.979 6.45532 65.4094 7.75032 65.4094 9.15762V10.7312C65.4094 12.2303 66.9601 13.4699 68.9258 13.4699C70.9308 13.5691 72.6387 12.0801 72.7421 10.1435C72.8455 8.20678 71.305 6.55595 69.3 6.45532C69.1762 6.44949 69.051 6.44949 68.9258 6.45532H68.9069Z" fill="black"/>
<path d="M82.9096 8.72887C85.2713 8.42116 85.9746 8.09449 85.9746 7.46157C85.9746 6.64199 85.0792 6.14761 83.6901 6.14761C82.1947 6.02949 80.8333 6.98324 80.481 8.39345L77.0898 7.71241C77.5718 5.17928 80.2698 3.37241 83.594 3.37241C87.3535 3.37241 89.6846 5.2347 89.6846 8.25345V16.162H86.4566V14.7839H86.4085C85.3136 15.9753 83.7076 16.6082 82.0622 16.4974C79.2186 16.4974 77.2427 14.9968 77.2427 12.7714C77.2427 10.5445 78.8618 9.26845 82.9096 8.72887ZM86.2644 10.0414H86.2163C85.8975 10.4891 85.2524 10.7501 83.4688 11.0476C81.359 11.4297 80.5785 11.8307 80.5785 12.557C80.5785 13.2832 81.2046 13.6376 82.5631 13.6376C84.6351 13.6376 86.2353 12.7057 86.2353 11.523L86.2644 10.0414Z" fill="black"/>
<path d="M96.1906 15.4635L90.2441 3.73553H94.206L98.1082 11.8585H98.1665L102.021 3.73553H106.001L97.0963 21.4339H93.1358L96.1906 15.4635Z" fill="black"/>
</g>
<defs>
<clipPath id="clip0">
<rect width="106" height="35" fill="white"/>
</clipPath>
</defs>
</svg>
