<svg width="80" height="26" viewBox="0 0 80 26" fill="none" xmlns="http://www.w3.org/2000/svg">
<path d="M4.26216 2.176C4.26216 2.8 4.25016 3.532 4.22616 4.372C4.20216 5.188 4.17816 5.812 4.15416 6.244C4.08216 7.468 4.04616 8.692 4.04616 9.916C4.04616 10.828 4.08216 11.776 4.15416 12.76C4.89816 11.68 5.70216 10.888 6.56616 10.384C7.43016 9.88 8.47416 9.628 9.69816 9.628C10.5862 9.628 11.4142 10.024 12.1822 10.816C12.9502 11.608 13.4422 12.532 13.6582 13.588C13.7302 14.524 13.7662 15.664 13.7662 17.008C13.7662 17.872 13.8142 19 13.9102 20.392C13.9582 20.92 14.0902 21.412 14.3062 21.868C14.5462 22.324 14.8822 22.552 15.3142 22.552C15.5302 22.552 15.6982 22.54 15.8182 22.516C15.9622 22.492 16.0942 22.48 16.2142 22.48C16.5502 22.48 16.7782 22.564 16.8982 22.732C17.0422 22.9 17.1142 23.14 17.1142 23.452C17.1142 24.028 16.8262 24.46 16.2502 24.748C15.6742 25.036 15.1462 25.18 14.6662 25.18C12.9382 25.18 11.7502 24.46 11.1022 23.02C10.7422 22.204 10.5142 21.148 10.4182 19.852C10.3222 18.532 10.2742 16.996 10.2742 15.244C10.2742 13.516 9.68616 12.652 8.51016 12.652C7.86216 12.652 7.20216 13 6.53016 13.696C5.88216 14.368 5.34216 15.268 4.91016 16.396C4.47816 17.5 4.26216 18.652 4.26216 19.852L4.29816 23.596C4.29816 24.124 4.09416 24.52 3.68616 24.784C3.27816 25.024 2.89416 25.144 2.53416 25.144C2.00616 25.144 1.52616 24.988 1.09416 24.676C0.662156 24.34 0.446156 23.968 0.446156 23.56C0.614156 21.76 0.698156 18.748 0.698156 14.524C0.698156 13.756 0.638156 10.912 0.518156 5.992L0.410156 2.68C0.410156 2.152 0.650156 1.696 1.13016 1.312C1.61016 0.904002 2.15016 0.700003 2.75016 0.700003C3.27816 0.700003 3.66216 0.820002 3.90216 1.06C4.14216 1.3 4.26216 1.672 4.26216 2.176ZM21.6133 1.888C22.4533 1.96 23.1853 2.188 23.8093 2.572C24.4333 2.932 24.7453 3.484 24.7453 4.228C24.7453 4.78 24.4813 5.224 23.9533 5.56C23.4493 5.872 22.8373 6.028 22.1173 6.028C21.4213 6.028 20.9413 5.848 20.6773 5.488C20.4133 5.128 20.2813 4.756 20.2813 4.372C20.2813 3.652 20.3533 3.052 20.4973 2.572C20.6653 2.092 21.0373 1.864 21.6133 1.888ZM24.4933 17.836V18.88C24.4933 19.816 24.5173 20.704 24.5653 21.544C24.6373 22.36 24.7213 23.188 24.8173 24.028C24.7933 24.268 24.6133 24.52 24.2773 24.784C23.9413 25.024 23.6413 25.144 23.3773 25.144C22.9213 25.144 22.4533 25.06 21.9733 24.892C21.5173 24.7 21.2413 24.472 21.1453 24.208C21.0013 23.44 20.9293 22.756 20.9293 22.156C20.9293 20.188 20.8693 17.98 20.7493 15.532C20.6533 13.372 20.6053 11.86 20.6053 10.996C20.6053 10.564 20.8213 10.192 21.2533 9.88C21.6853 9.568 22.1413 9.412 22.6213 9.412C23.3173 9.412 23.7973 9.568 24.0613 9.88C24.3493 10.192 24.4933 10.684 24.4933 11.356V17.836ZM36.9042 3.796C36.1842 3.796 35.7402 4.396 35.5722 5.596C35.4042 7.228 35.3202 8.464 35.3202 9.304C35.8002 9.352 36.3042 9.376 36.8322 9.376C37.1682 9.376 37.6002 9.352 38.1282 9.304L39.0642 9.268C39.5442 9.268 39.9042 9.352 40.1442 9.52C40.3842 9.688 40.5042 9.964 40.5042 10.348C40.5042 10.876 40.3242 11.332 39.9642 11.716C39.6282 12.076 39.2322 12.256 38.7762 12.256C37.0482 12.256 35.8842 12.34 35.2842 12.508C35.2842 13.972 35.3562 16.048 35.5002 18.736L35.5722 20.5L35.7162 23.308C35.7642 24.004 35.6922 24.496 35.5002 24.784C35.3322 25.048 34.9602 25.18 34.3842 25.18C33.3282 25.18 32.6442 24.544 32.3322 23.272C32.1402 22.336 31.9842 21.028 31.8642 19.348C31.7442 17.668 31.6842 16.168 31.6842 14.848C31.6842 14.152 31.7202 13.36 31.7922 12.472C31.7442 12.448 31.6122 12.436 31.3962 12.436C31.1802 12.436 31.0242 12.448 30.9282 12.472C30.2082 12.52 29.6802 12.544 29.3442 12.544C29.1282 12.544 28.9122 12.4 28.6962 12.112C28.4802 11.8 28.3722 11.428 28.3722 10.996C28.3722 10.756 28.4562 10.54 28.6242 10.348C28.7922 10.132 28.9962 9.976 29.2362 9.88C29.5962 9.688 30.1122 9.592 30.7842 9.592L31.8642 9.628C31.8642 6.22 32.2482 3.856 33.0162 2.536C33.7362 1.288 34.9242 0.664001 36.5802 0.664001C37.5402 0.664001 38.4162 0.904001 39.2082 1.384C39.5442 1.6 39.7962 1.864 39.9642 2.176C40.1562 2.488 40.2522 2.788 40.2522 3.076C40.2522 3.436 40.1082 3.808 39.8202 4.192C39.5562 4.576 39.1482 4.768 38.5962 4.768C38.3802 4.768 38.1042 4.6 37.7682 4.264C37.6482 4.144 37.5162 4.036 37.3722 3.94C37.2282 3.844 37.0722 3.796 36.9042 3.796ZM47.5905 19.42C47.5905 20.332 47.7225 21.04 47.9865 21.544C48.2745 22.024 48.6345 22.264 49.0665 22.264C49.3065 22.264 49.5345 22.252 49.7505 22.228C49.9665 22.18 50.1825 22.156 50.3985 22.156C50.6385 22.156 50.8425 22.276 51.0105 22.516C51.2025 22.756 51.2985 23.02 51.2985 23.308C51.2985 23.884 51.0225 24.34 50.4705 24.676C49.9425 24.988 49.2225 25.144 48.3105 25.144C47.6625 25.144 47.0025 24.952 46.3305 24.568C45.6825 24.16 45.1425 23.536 44.7105 22.696C44.2785 21.832 44.0625 20.764 44.0625 19.492C44.0625 16.756 44.1105 14.44 44.2065 12.544C44.3265 10.288 44.3865 7.444 44.3865 4.012C44.3865 2.932 44.4465 2.176 44.5665 1.744C44.7105 1.408 44.9385 1.156 45.2505 0.988001C45.5865 0.796002 45.9345 0.700003 46.2945 0.700003C46.6545 0.700003 46.9665 0.760003 47.2305 0.880002C47.5185 1 47.7105 1.192 47.8065 1.456C47.9025 1.744 47.9625 2.032 47.9865 2.32C48.0345 2.584 48.0585 2.968 48.0585 3.472C48.0585 4.456 48.0225 5.404 47.9505 6.316C47.9025 7.42 47.8785 8.224 47.8785 8.728C47.6865 12.952 47.5905 16.516 47.5905 19.42ZM56.0899 1.888C56.9299 1.96 57.6619 2.188 58.2859 2.572C58.9099 2.932 59.2219 3.484 59.2219 4.228C59.2219 4.78 58.9579 5.224 58.4299 5.56C57.9259 5.872 57.3139 6.028 56.5939 6.028C55.8979 6.028 55.4179 5.848 55.1539 5.488C54.8899 5.128 54.7579 4.756 54.7579 4.372C54.7579 3.652 54.8299 3.052 54.9739 2.572C55.1419 2.092 55.5139 1.864 56.0899 1.888ZM58.9699 17.836V18.88C58.9699 19.816 58.9939 20.704 59.0419 21.544C59.1139 22.36 59.1979 23.188 59.2939 24.028C59.2939 24.316 59.1259 24.58 58.7899 24.82C58.4539 25.036 58.1419 25.144 57.8539 25.144C57.3979 25.144 56.9299 25.06 56.4499 24.892C55.9939 24.7 55.7179 24.472 55.6219 24.208C55.4779 23.44 55.4059 22.756 55.4059 22.156C55.4059 20.188 55.3459 17.98 55.2259 15.532C55.1299 13.372 55.0819 11.86 55.0819 10.996C55.0819 10.564 55.2979 10.192 55.7299 9.88C56.1619 9.568 56.6179 9.412 57.0979 9.412C57.7939 9.412 58.2739 9.568 58.5379 9.88C58.8259 10.192 58.9699 10.684 58.9699 11.356V17.836ZM76.1328 9.124C76.6128 9.124 76.9848 9.244 77.2488 9.484C77.5368 9.7 77.6808 9.976 77.6808 10.312C77.6808 10.552 77.6328 10.804 77.5368 11.068C77.4648 11.308 77.3808 11.56 77.2848 11.824C76.7327 13.12 75.5688 14.932 73.7928 17.26C75.6168 19.612 77.0928 21.124 78.2208 21.796C78.3168 21.844 78.4968 21.928 78.7608 22.048C79.0248 22.168 79.2288 22.312 79.3728 22.48C79.5408 22.648 79.6248 22.84 79.6248 23.056C79.6248 23.584 79.4208 24.016 79.0128 24.352C78.6288 24.664 78.1608 24.82 77.6088 24.82C76.6728 24.82 75.6527 24.304 74.5488 23.272C73.4448 22.216 72.5088 21.112 71.7408 19.96C71.1888 20.8 70.5528 21.64 69.8328 22.48C69.1368 23.296 68.4888 23.992 67.8888 24.568C67.6488 24.832 67.3608 25.036 67.0248 25.18C66.7128 25.324 66.4007 25.396 66.0888 25.396C65.6568 25.396 65.2728 25.3 64.9368 25.108C64.6008 24.916 64.4328 24.58 64.4328 24.1C64.4328 23.98 64.5168 23.788 64.6848 23.524C64.8528 23.236 64.9488 23.068 64.9728 23.02C65.2608 22.516 65.6448 22 66.1248 21.472C66.6048 20.92 66.9048 20.572 67.0248 20.428C67.3128 20.068 67.6248 19.72 67.9608 19.384C68.1528 19.168 68.4408 18.832 68.8248 18.376C69.2088 17.92 69.4728 17.56 69.6168 17.296L68.3568 15.568C67.7568 14.872 67.2408 14.32 66.8088 13.912C66.3768 13.48 66.0288 13.264 65.7648 13.264C65.3808 13.264 65.0208 13.372 64.6848 13.588C64.3968 13.78 64.1088 13.876 63.8208 13.876C63.5088 13.876 63.2688 13.804 63.1008 13.66C62.9328 13.492 62.8488 13.312 62.8488 13.12C62.8488 12.304 63.1728 11.608 63.8208 11.032C64.4688 10.432 65.2848 10.132 66.2688 10.132C67.2048 10.132 68.0328 10.456 68.7528 11.104C69.4968 11.728 70.2288 12.568 70.9488 13.624C71.0448 13.72 71.1527 13.876 71.2728 14.092C71.3928 14.308 71.5127 14.488 71.6328 14.632C71.8968 14.248 72.3768 13.504 73.0728 12.4C73.8168 11.08 74.2608 10.324 74.4048 10.132C74.9088 9.46 75.4847 9.124 76.1328 9.124Z" fill="#D00707"/>
</svg>
