<svg width="24" height="24" viewBox="0 0 24 24" fill="none" xmlns="http://www.w3.org/2000/svg">
<path d="M11.999 7.37701C10.7726 7.37701 9.59651 7.86418 8.72934 8.73135C7.86217 9.59852 7.375 10.7747 7.375 12.001C7.375 13.2274 7.86217 14.4035 8.72934 15.2707C9.59651 16.1378 10.7726 16.625 11.999 16.625C13.2254 16.625 14.4015 16.1378 15.2687 15.2707C16.1358 14.4035 16.623 13.2274 16.623 12.001C16.623 10.7747 16.1358 9.59852 15.2687 8.73135C14.4015 7.86418 13.2254 7.37701 11.999 7.37701ZM11.999 15.004C11.2023 15.004 10.4382 14.6875 9.87485 14.1242C9.31149 13.5608 8.995 12.7967 8.995 12C8.995 11.2033 9.31149 10.4392 9.87485 9.87587C10.4382 9.31251 11.2023 8.99601 11.999 8.99601C12.7957 8.99601 13.5598 9.31251 14.1231 9.87587C14.6865 10.4392 15.003 11.2033 15.003 12C15.003 12.7967 14.6865 13.5608 14.1231 14.1242C13.5598 14.6875 12.7957 15.004 11.999 15.004Z" fill="#6E7191"/>
<path d="M16.8046 8.28503C17.3999 8.28503 17.8826 7.80239 17.8826 7.20703C17.8826 6.61166 17.3999 6.12903 16.8046 6.12903C16.2092 6.12903 15.7266 6.61166 15.7266 7.20703C15.7266 7.80239 16.2092 8.28503 16.8046 8.28503Z" fill="#6E7191"/>
<path d="M20.5349 6.111C20.3034 5.51319 19.9496 4.97029 19.4962 4.51706C19.0428 4.06384 18.4998 3.71028 17.9019 3.479C17.2022 3.21636 16.4631 3.07435 15.7159 3.059C14.7529 3.017 14.4479 3.005 12.0059 3.005C9.56391 3.005 9.25091 3.005 8.29591 3.059C7.54929 3.07356 6.81066 3.21561 6.11191 3.479C5.51384 3.71001 4.97067 4.06348 4.51724 4.51673C4.06381 4.96999 3.71013 5.51303 3.47891 6.111C3.21621 6.81062 3.07452 7.54984 3.05991 8.297C3.01691 9.259 3.00391 9.564 3.00391 12.007C3.00391 14.449 3.00391 14.76 3.05991 15.717C3.07491 16.465 3.21591 17.203 3.47891 17.904C3.71078 18.5018 4.0648 19.0446 4.51834 19.4978C4.97188 19.951 5.51497 20.3046 6.11291 20.536C6.81034 20.8092 7.54928 20.9614 8.29791 20.986C9.26091 21.028 9.56591 21.041 12.0079 21.041C14.4499 21.041 14.7629 21.041 15.7179 20.986C16.465 20.9708 17.2041 20.8291 17.9039 20.567C18.5017 20.3352 19.0445 19.9813 19.4979 19.528C19.9512 19.0746 20.3051 18.5318 20.5369 17.934C20.7999 17.234 20.9409 16.496 20.9559 15.748C20.9989 14.786 21.0119 14.481 21.0119 12.038C21.0119 9.59501 21.0119 9.285 20.9559 8.328C20.9443 7.57028 20.8018 6.82025 20.5349 6.111ZM19.3169 15.643C19.3105 16.2193 19.2053 16.7902 19.0059 17.331C18.8557 17.7199 18.6258 18.073 18.331 18.3677C18.0361 18.6624 17.6829 18.8921 17.2939 19.042C16.7591 19.2405 16.1943 19.3456 15.6239 19.353C14.6739 19.397 14.4059 19.408 11.9699 19.408C9.53191 19.408 9.28291 19.408 8.31491 19.353C7.74483 19.346 7.18023 19.2408 6.64591 19.042C6.25559 18.893 5.90091 18.6637 5.6048 18.369C5.30868 18.0742 5.07774 17.7206 4.92691 17.331C4.73035 16.7961 4.62522 16.2318 4.61591 15.662C4.57291 14.712 4.56291 14.444 4.56291 12.008C4.56291 9.571 4.56291 9.322 4.61591 8.353C4.62237 7.77703 4.72756 7.20642 4.92691 6.666C5.23191 5.877 5.85691 5.256 6.64591 4.954C7.1805 4.75614 7.74493 4.65097 8.31491 4.643C9.26591 4.6 9.53291 4.588 11.9699 4.588C14.4069 4.588 14.6569 4.588 15.6239 4.643C16.1943 4.64987 16.7593 4.75508 17.2939 4.954C17.6828 5.10428 18.036 5.33421 18.3309 5.62903C18.6257 5.92386 18.8556 6.27708 19.0059 6.666C19.2025 7.20095 19.3076 7.76516 19.3169 8.335C19.3599 9.28601 19.3709 9.553 19.3709 11.99C19.3709 14.426 19.3709 14.688 19.3279 15.644H19.3169V15.643Z" fill="#6E7191"/>
</svg>
