<svg width="130" height="51" viewBox="0 0 130 51" fill="none" xmlns="http://www.w3.org/2000/svg">
<path d="M14.3987 40.5806H8.7955V17.546H0.351562V11.7823H22.823V17.546H14.3987V40.5806ZM31.5413 13.2282C31.5413 13.737 31.4434 14.2123 31.2473 14.6541C31.0646 15.0959 30.81 15.4842 30.4834 15.8189C30.1568 16.1402 29.7716 16.4013 29.3276 16.6021C28.8964 16.7895 28.4328 16.8832 27.9363 16.8832C27.4402 16.8832 26.9699 16.7895 26.5258 16.6021C26.0948 16.4013 25.7161 16.1402 25.3895 15.8189C25.0761 15.4842 24.8214 15.0959 24.6255 14.6541C24.4426 14.2123 24.3512 13.737 24.3512 13.2282C24.3512 12.7329 24.4426 12.2643 24.6255 11.8224C24.8214 11.3672 25.0761 10.979 25.3895 10.6576C25.7161 10.3229 26.0948 10.0619 26.5258 9.87444C26.9699 9.67362 27.4402 9.57321 27.9363 9.57321C28.4328 9.57321 28.8964 9.67362 29.3276 9.87444C29.7716 10.0619 30.1568 10.3229 30.4834 10.6576C30.81 10.979 31.0646 11.3672 31.2473 11.8224C31.4434 12.2643 31.5413 12.7329 31.5413 13.2282ZM30.6206 40.5806H25.2328V19.0722H30.6206V40.5806ZM53.0528 23.3498L49.1344 27.3864C48.9386 26.8241 48.6708 26.322 48.3311 25.8802C47.9917 25.425 47.6065 25.0435 47.1753 24.7355C46.7575 24.4276 46.3003 24.1933 45.8039 24.0326C45.3077 23.872 44.7981 23.7916 44.2757 23.7916C43.5444 23.7916 42.8521 23.9456 42.1992 24.2535C41.5591 24.5614 40.9973 24.9966 40.5142 25.5589C40.044 26.1078 39.6717 26.7639 39.3975 27.5271C39.1233 28.2902 38.9861 29.1336 38.9861 30.0574C38.9861 30.807 39.1233 31.51 39.3975 32.1662C39.6717 32.822 40.044 33.3979 40.5142 33.893C40.9973 34.3885 41.5591 34.7768 42.1992 35.0578C42.8521 35.3391 43.5444 35.4795 44.2757 35.4795C44.7981 35.4795 45.301 35.406 45.7843 35.2588C46.2677 35.1116 46.7181 34.904 47.1362 34.6361C47.5671 34.3551 47.9459 34.0203 48.2725 33.632C48.612 33.2303 48.8864 32.7886 49.0953 32.3066L53.0135 36.3432C52.5173 37.0663 51.9425 37.7156 51.2895 38.2911C50.6494 38.8669 49.9507 39.3555 49.1932 39.7572C48.4488 40.1589 47.6586 40.4603 46.8227 40.661C45.9999 40.8751 45.1509 40.9823 44.2757 40.9823C42.7999 40.9823 41.409 40.701 40.1028 40.1389C38.8098 39.5631 37.6735 38.78 36.694 37.7891C35.7272 36.7984 34.9633 35.6402 34.4016 34.3148C33.8401 32.9893 33.5592 31.5704 33.5592 30.0574C33.5592 28.4105 33.8401 26.871 34.4016 25.4384C34.9633 24.0058 35.7272 22.7607 36.694 21.703C37.6735 20.632 38.8098 19.7885 40.1028 19.1726C41.409 18.5568 42.7999 18.2489 44.2757 18.2489C45.1509 18.2489 46.0063 18.3626 46.8423 18.5903C47.6913 18.8179 48.4945 19.1526 49.2521 19.5944C50.0227 20.0228 50.7278 20.5516 51.3679 21.1809C52.0209 21.8102 52.5826 22.5331 53.0528 23.3498ZM61.0658 40.5806H55.678V10.5171H61.0658V29.475L69.0394 19.1124H75.1914L68.2363 28.0692L75.1914 40.5806H69.0394L64.7881 32.7686L61.0658 37.8294V40.5806ZM83.6157 13.2282C83.6157 13.737 83.5175 14.2123 83.3217 14.6541C83.1387 15.0959 82.8841 15.4842 82.5577 15.8189C82.2311 16.1402 81.8457 16.4013 81.4017 16.6021C80.9707 16.7895 80.5072 16.8832 80.0107 16.8832C79.5145 16.8832 79.0443 16.7895 78.6002 16.6021C78.169 16.4013 77.7903 16.1402 77.4639 15.8189C77.1504 15.4842 76.8958 15.0959 76.6997 14.6541C76.517 14.2123 76.4255 13.737 76.4255 13.2282C76.4255 12.7329 76.517 12.2643 76.6997 11.8224C76.8958 11.3672 77.1504 10.979 77.4639 10.6576C77.7903 10.3229 78.169 10.0619 78.6002 9.87444C79.0443 9.67362 79.5145 9.57321 80.0107 9.57321C80.5072 9.57321 80.9707 9.67362 81.4017 9.87444C81.8457 10.0619 82.2311 10.3229 82.5577 10.6576C82.8841 10.979 83.1387 11.3672 83.3217 11.8224C83.5175 12.2643 83.6157 12.7329 83.6157 13.2282ZM82.6947 40.5806H77.3072V19.0722H82.6947V40.5806ZM97.3101 40.5806C96.017 40.5806 94.8024 40.333 93.6661 39.8376C92.5298 39.3289 91.5307 38.6393 90.6686 37.769C89.8196 36.8853 89.1468 35.8612 88.6506 34.6964C88.1673 33.5317 87.9257 32.2865 87.9257 30.9611V24.5749H85.3201V19.1124H87.9257V10.5171H93.2547V19.1124H101.365V24.5749H93.2547V30.9611C93.2547 31.5369 93.359 32.079 93.5682 32.5879C93.7771 33.0831 94.0644 33.5182 94.43 33.893C94.7959 34.2681 95.2269 34.5692 95.7231 34.7968C96.2195 35.0112 96.7483 35.1181 97.3101 35.1181H101.365V40.5806H97.3101ZM120.761 40.5806H103.266L112.102 24.5749H103.266V19.1124H120.761L111.925 35.1181H120.761V40.5806Z" fill="#5F2EEA"/>
<path d="M127.794 23.9223C127.789 23.9199 127.785 23.9185 127.781 23.9163L126.031 22.8802C125.922 23.0074 125.773 23.092 125.61 23.1195C125.447 23.1471 125.28 23.1158 125.137 23.0312C124.994 22.9464 124.884 22.8135 124.825 22.6549C124.767 22.4963 124.764 22.322 124.818 22.1615L123.056 21.1182C123.008 21.0903 122.952 21.0827 122.899 21.0972C122.847 21.1117 122.802 21.147 122.774 21.1955L117.544 30.483L117.543 30.4835C117.53 30.5074 117.521 30.534 117.517 30.5614C117.514 30.5891 117.516 30.6168 117.523 30.6436C117.53 30.6705 117.542 30.6955 117.558 30.7177C117.575 30.7396 117.595 30.758 117.619 30.772L119.381 31.8139C119.49 31.6869 119.639 31.6025 119.802 31.5748C119.965 31.5474 120.132 31.5786 120.275 31.6631C120.418 31.7478 120.528 31.8805 120.586 32.0387C120.645 32.1969 120.648 32.3711 120.595 32.5315L122.335 33.56C122.342 33.5654 122.349 33.5712 122.356 33.5759C122.38 33.5899 122.406 33.5986 122.433 33.6025C122.459 33.606 122.487 33.6041 122.513 33.597C122.539 33.5899 122.563 33.5775 122.585 33.5605C122.606 33.5438 122.624 33.5227 122.638 33.4985V33.4988L127.869 24.2107C127.883 24.1867 127.891 24.1602 127.895 24.1327C127.898 24.1052 127.897 24.0773 127.889 24.0505C127.883 24.0237 127.87 23.9986 127.854 23.9766C127.838 23.9546 127.817 23.9362 127.794 23.9223ZM126.294 24.6433L122.216 31.8835C122.202 31.9077 122.184 31.9288 122.163 31.9455C122.141 31.9625 122.117 31.9748 122.091 31.982C122.065 31.9891 122.037 31.991 122.011 31.9875C121.984 31.9839 121.958 31.9749 121.934 31.9609L119.194 30.339C119.171 30.325 119.15 30.3067 119.134 30.2847C119.117 30.2628 119.105 30.2376 119.098 30.211C119.091 30.1841 119.089 30.1561 119.093 30.1287C119.097 30.1013 119.105 30.0747 119.119 30.0508L123.197 22.8105C123.224 22.762 123.269 22.7267 123.322 22.7122C123.374 22.6977 123.43 22.7053 123.478 22.7333L126.218 24.3552C126.242 24.3691 126.262 24.3875 126.279 24.4095C126.295 24.4314 126.307 24.4565 126.314 24.4833C126.321 24.51 126.323 24.5379 126.32 24.5654C126.316 24.5928 126.307 24.6193 126.294 24.6433Z" fill="#5F2EEA"/>
<path d="M124.095 27.1535L123.227 26.9879L123.105 26.1373C123.103 26.1248 123.098 26.1131 123.089 26.104C123.081 26.0948 123.069 26.0886 123.057 26.0862C123.045 26.0839 123.032 26.0854 123.021 26.0907C123.01 26.0959 123.001 26.1046 122.994 26.1156L122.573 26.863L121.727 26.7017C121.715 26.6994 121.702 26.701 121.691 26.7063C121.68 26.7116 121.67 26.7203 121.664 26.7313C121.658 26.7422 121.655 26.7548 121.656 26.7674C121.658 26.78 121.662 26.792 121.67 26.8016L122.23 27.4726L121.809 28.2197C121.803 28.231 121.8 28.2436 121.801 28.2562C121.803 28.2691 121.808 28.2812 121.816 28.2908C121.824 28.3004 121.835 28.3069 121.847 28.3099C121.859 28.313 121.871 28.3121 121.883 28.3075L122.662 27.9905L123.236 28.6785C123.244 28.6878 123.255 28.6946 123.267 28.6977C123.279 28.7007 123.291 28.6998 123.303 28.6955C123.314 28.6911 123.324 28.6831 123.331 28.6727C123.338 28.6623 123.342 28.6499 123.341 28.6373L123.326 27.7149L124.113 27.2669C124.124 27.2607 124.133 27.2513 124.138 27.2399C124.144 27.2286 124.145 27.2159 124.144 27.2034C124.141 27.191 124.136 27.1796 124.127 27.1706C124.118 27.1617 124.107 27.1557 124.095 27.1535Z" fill="#5F2EEA"/>
</svg>
