<svg width="20" height="18" viewBox="0 0 20 18" fill="none" xmlns="http://www.w3.org/2000/svg">
<path d="M6.51156 17H6.43156C4.81992 16.9859 3.23158 16.6136 1.78156 15.91C1.51483 15.7847 1.29521 15.5773 1.15486 15.3182C1.01451 15.0591 0.960783 14.7619 1.00156 14.47C1.0459 14.1762 1.18194 13.9039 1.39026 13.692C1.59858 13.4801 1.86853 13.3394 2.16156 13.29C3.06017 13.1701 3.92464 12.8672 4.70156 12.4C3.35272 11.3454 2.31431 9.94559 1.69638 8.34883C1.07844 6.75206 0.904008 5.01786 1.19156 3.33002C1.23054 3.06267 1.34552 2.81216 1.5228 2.60828C1.70009 2.4044 1.93221 2.25575 2.19156 2.18002C2.44387 2.10078 2.7139 2.09739 2.96812 2.17028C3.22235 2.24317 3.44956 2.38912 3.62156 2.59002C4.20556 3.3558 4.93945 3.99458 5.77846 4.46739C6.61747 4.94019 7.54401 5.2371 8.50156 5.34002C8.5473 4.16187 9.05359 3.04874 9.91156 2.24002C10.34 1.82979 10.8457 1.50893 11.3994 1.29613C11.953 1.08333 12.5435 0.982838 13.1364 1.00052C13.7292 1.01821 14.3127 1.15371 14.8526 1.39913C15.3926 1.64455 15.8784 1.99499 16.2816 2.43002C16.3866 2.52289 16.5171 2.58207 16.6562 2.5999C16.7953 2.61773 16.9365 2.59339 17.0616 2.53002C17.3 2.41757 17.5655 2.37524 17.8271 2.40796C18.0886 2.44069 18.3355 2.54713 18.5389 2.71487C18.7423 2.8826 18.8938 3.10471 18.9757 3.35528C19.0576 3.60585 19.0666 3.87454 19.0016 4.13002C18.7709 5.08014 18.3339 5.96781 17.7216 6.73002C17.5866 9.57477 16.3324 12.2508 14.2325 14.1746C12.1326 16.0985 9.35722 17.1141 6.51156 17ZM6.51156 15H6.59156C7.75422 15.04 8.91327 14.8488 10.0015 14.4375C11.0897 14.0262 12.0855 13.4029 12.931 12.6039C13.7765 11.8049 14.4551 10.8459 14.9272 9.78271C15.3994 8.71948 15.6558 7.57309 15.6816 6.41002C15.6981 6.09127 15.8295 5.7893 16.0516 5.56002C16.2955 5.25127 16.5035 4.91578 16.6716 4.56002C16.3113 4.56071 15.955 4.48535 15.6258 4.33888C15.2967 4.19241 15.0022 3.97812 14.7616 3.71002C14.5302 3.48057 14.2553 3.2996 13.9531 3.17768C13.6509 3.05577 13.3274 2.99537 13.0016 3.00002C12.6725 2.99151 12.3449 3.04808 12.0377 3.16649C11.7306 3.2849 11.4498 3.46282 11.2116 3.69002C10.8901 3.99502 10.6545 4.37909 10.5281 4.80379C10.4017 5.22849 10.3891 5.67892 10.4916 6.11002L10.7516 7.25002L9.58156 7.33002C8.38265 7.42778 7.17682 7.26378 6.04757 6.84938C4.91832 6.43498 3.89264 5.78007 3.04156 4.93002C3.00506 6.24642 3.33436 7.54715 3.99285 8.68759C4.65134 9.82804 5.61323 10.7635 6.77156 11.39L7.72156 11.93L7.09156 12.83C6.41025 13.7235 5.47674 14.3923 4.41156 14.75C5.09487 14.9213 5.79713 15.0053 6.50156 15H6.51156Z" fill="#6E7191"/>
</svg>
